<svg xmlns="http://www.w3.org/2000/svg" viewBox="0 0 512 512" role="img" aria-label="Paper Pallet Pro">
  <defs>
    <linearGradient id="bg" x1="0" y1="0" x2="1" y2="1">
      <stop offset="0%" stop-color="#0f172a" />
      <stop offset="100%" stop-color="#1e293b" />
    </linearGradient>
    <linearGradient id="accent" x1="0" y1="0" x2="1" y2="1">
      <stop offset="0%" stop-color="#38bdf8" />
      <stop offset="100%" stop-color="#22c55e" />
    </linearGradient>
  </defs>
  <rect width="512" height="512" rx="112" fill="url(#bg)" />
  <rect x="104" y="128" width="304" height="256" rx="32" fill="#e2e8f0" opacity="0.12" />
  <rect x="140" y="164" width="232" height="34" rx="17" fill="url(#accent)" />
  <rect x="140" y="220" width="180" height="24" rx="12" fill="#e2e8f0" opacity="0.9" />
  <rect x="140" y="262" width="120" height="24" rx="12" fill="#e2e8f0" opacity="0.7" />
  <rect x="140" y="304" width="220" height="24" rx="12" fill="#e2e8f0" opacity="0.5" />
  <path d="M372 246h16v80h-16zM344 246h16v80h-16zM316 246h16v80h-16z" fill="#38bdf8" />
  <path d="M380 196h-16v-16h16zm-24 0h-16v-16h16zm-24 0h-16v-16h16z" fill="#22c55e" />
  <text x="256" y="404" text-anchor="middle" font-family="Arial, sans-serif" font-size="44" font-weight="700" fill="#f8fafc">PP</text>
</svg>
